<svg id="Group_2" data-name="Group 2" xmlns="http://www.w3.org/2000/svg" width="19" height="18" viewBox="0 0 19 18">
  <path id="Path_5" data-name="Path 5" d="M96.883,300.251a.541.541,0,0,0-.548.552v7.542H92.453v-3.08a.543.543,0,0,0-.528-.542H89.117a.556.556,0,0,0-.558.542v3.08H84.686v-7.292a.538.538,0,0,0-1.075,0V308.9a.534.534,0,0,0,.528.533h4.978a.534.534,0,0,0,.528-.533v-3.08h1.732v3.08a.539.539,0,0,0,.548.533h4.958a.534.534,0,0,0,.528-.533V300.8A.537.537,0,0,0,96.883,300.251Z" transform="translate(-81.015 -291.431)" fill="#868e96"/>
  <path id="Path_6" data-name="Path 6" d="M18.845,27.55l-4.321-4.373V20.2a.549.549,0,0,0-.558-.55.537.537,0,0,0-.528.55v1.888L9.874,18.471a.522.522,0,0,0-.368-.171.539.539,0,0,0-.388.171L.167,27.49a.519.519,0,0,0,0,.762.51.51,0,0,0,.757,0l8.583-8.628,8.563,8.709a.527.527,0,0,0,.388.141.6.6,0,0,0,.388-.141A.572.572,0,0,0,18.845,27.55Z" transform="translate(0 -18.3)" fill="#868e96"/>
</svg>
