<svg xmlns="http://www.w3.org/2000/svg" width="16" height="20" viewBox="0 0 16 20">
  <g id="cookies-couple-in-a-jar-like-a-snack-for-computer-workers-of-an-office" transform="translate(-63.961)">
    <path id="Path_14" data-name="Path 14" d="M77.954,4.233V2.686H65.862V4.17a3.885,3.885,0,0,0-1.9,3.6v7.619c0,3.063,2.292,4.615,6.812,4.615h2.376c4.52,0,6.812-1.553,6.812-4.615V7.766A3.817,3.817,0,0,0,77.954,4.233ZM79.01,15.384c0,2.514-1.917,3.736-5.862,3.736H70.773c-3.944,0-5.862-1.222-5.862-3.736V7.766A3.031,3.031,0,0,1,66.569,4.8l.244-.126V3.565H77V4.746l.247.125A2.993,2.993,0,0,1,79.01,7.766ZM65.565,1.429V.586A.611.611,0,0,1,66.2,0H77.724a.611.611,0,0,1,.634.586v.842a.612.612,0,0,1-.634.586H66.2A.611.611,0,0,1,65.565,1.429Zm11.519,14.3c0,1.108-1.714,2.006-3.829,2.006A5.68,5.68,0,0,1,70.307,17a6.506,6.506,0,0,0,1.253-1.2,5.791,5.791,0,0,0,1.079-2.054c.2-.017.407-.026.617-.026C75.371,13.72,77.085,14.617,77.085,15.725Zm-9.79,1.364c-.964-.658-.727-2.466.528-4.04s3.055-2.316,4.018-1.659.728,2.467-.528,4.04S68.258,17.747,67.295,17.089Z" transform="translate(0)" fill="#fff"/>
  </g>
</svg>
