<svg xmlns="http://www.w3.org/2000/svg" xmlns:xlink="http://www.w3.org/1999/xlink" width="61" height="60" viewBox="0 0 61 60">
  <defs>
    <linearGradient id="linear-gradient" x1="1.295" y1="0.102" x2="0.5" y2="1" gradientUnits="objectBoundingBox">
      <stop offset="0" stop-color="#a9c670"/>
      <stop offset="1" stop-color="#7ead56"/>
    </linearGradient>
  </defs>
  <g id="logo" transform="translate(-219 -311)">
    <path id="Path_9" data-name="Path 9" d="M256.294,386.142c-1.292-5.18-4.767-7.3-8.764-10.08-1.6,2.372-3.113,4.268-5.49,5.075a1.554,1.554,0,0,0-.067-1.211,10.664,10.664,0,0,1-5.216,2.5,1.4,1.4,0,0,0,.383-1.19c-2.015,1.242-3.889-.046-5.978,1.155a7.481,7.481,0,0,1,2.552-3.022,3.1,3.1,0,0,0-1.214-.137,9.127,9.127,0,0,1,3.984-1.979,2.782,2.782,0,0,0-1.337-.456c1.45-.832,5.388-1.246,8.459-2.5-3.3.537-6.055,1.277-9.073,1.2a2.741,2.741,0,0,0,.835-1.1,24.224,24.224,0,0,1-8.045-1.979,3.049,3.049,0,0,0,1.6-.923c-1.787-.516-4.04-1.028-5.563-2.509a2.114,2.114,0,0,0,1.386-.972c-3.166-2.165-5.282-4.98-5.746-8.823a25.19,25.19,0,0,0,6.908,3.6,3.363,3.363,0,0,0-.175-1.916,13.9,13.9,0,0,1,4.819,4.236,3.061,3.061,0,0,0,.109-1.821,15.188,15.188,0,0,1,4.479,4.317,2.778,2.778,0,0,0-.348-2.148c1.836,1.19,3.8,2.643,6.1,3.952-2.443-3.078-7.768-4.194-10.6-10.974a4.9,4.9,0,0,0,2.738.526,15.712,15.712,0,0,1-3.928-7.742,4.169,4.169,0,0,0,2,.737,11.69,11.69,0,0,1-2.281-7.247,2.747,2.747,0,0,0,1.583,1.109c-.323-4.176.355-7.307,3.573-11.483a35.487,35.487,0,0,1,1.523,9.623c.281-.667.832-1.99,1.113-2.657a32.773,32.773,0,0,1,1.471,6.819,4.354,4.354,0,0,0,1.018-2.306,18.863,18.863,0,0,1,1.064,7.023,5.6,5.6,0,0,0,1.246-1.818c.863,2.039.4,3.987-.165,6.057-4.784,17.66,16.887,16.7,15.044,29.07Z" transform="translate(0 -15.142)" fill-rule="evenodd" fill="url(#linear-gradient)"/>
    <path id="Path_10" data-name="Path 10" d="M292.01,311a24.074,24.074,0,0,1,3.57,9.581,2.926,2.926,0,0,0,1.193-1.657,23.986,23.986,0,0,1,.425,8.349c.684-.042,1.018-1.134,1.327-1.772a19.05,19.05,0,0,1-.639,8.879,2.521,2.521,0,0,0,1.5-1.271,60.792,60.792,0,0,1-4.37,18.439h0c3.8-6.721,3.373-10.585,5.353-14.059a3.46,3.46,0,0,0,1.113,1.948,19.276,19.276,0,0,1,.93-8.771,4.354,4.354,0,0,0,1.018,2.306,32.673,32.673,0,0,1,1.471-6.819c.281.667.832,1.99,1.113,2.657a35.348,35.348,0,0,1,1.523-9.623c3.219,4.176,3.893,7.307,3.573,11.483a2.747,2.747,0,0,0,1.583-1.109,11.684,11.684,0,0,1-2.281,7.247,4.168,4.168,0,0,0,2-.737,15.713,15.713,0,0,1-3.928,7.742,4.9,4.9,0,0,0,2.738-.526c-2.713,4.345-7.971,9.15-13.356,12.182,2.857-.733,6.251-3.467,8.859-5.159a2.778,2.778,0,0,0-.347,2.148,15.146,15.146,0,0,1,4.479-4.317,3.03,3.03,0,0,0,.109,1.821,13.9,13.9,0,0,1,4.819-4.236,3.39,3.39,0,0,0-.176,1.916,25.189,25.189,0,0,0,6.908-3.6c-.463,3.839-2.58,6.658-5.746,8.823a2.114,2.114,0,0,0,1.387.972c-1.523,1.481-3.777,1.993-5.563,2.509a3.049,3.049,0,0,0,1.6.923,24.2,24.2,0,0,1-8.045,1.979,2.777,2.777,0,0,0,.835,1.095c-3.022.081-5.781-.66-9.073-1.2,3.071,1.256,7.009,1.667,8.459,2.5a2.78,2.78,0,0,0-1.337.456,9.164,9.164,0,0,1,3.984,1.979,3.032,3.032,0,0,0-1.214.137,7.443,7.443,0,0,1,2.555,3.022c-2.088-1.2-3.963.091-5.978-1.155a1.4,1.4,0,0,0,.379,1.19,8.29,8.29,0,0,1-3.3-1.151,7.463,7.463,0,0,1-1.874,3.9c2.752-6.893-3.173-10.294-7.511-14.41-2.6-2.464-3.966-5.654-3.25-8.935a27.42,27.42,0,0,0,4.324.8c1.555-.018,1.534-1.277,1.341-2.064-.541-2.225,1.1-1.909.7-2.5a1.765,1.765,0,0,0-.863-.7c.495-.084,1.962-.705,1.341-1.256-.66-.59-1.014-1.144-.042-1.6,1.422-.656,1.776-1.049,1.144-1.839-1.246-1.562-2.787-3.738-1.994-5.531a5.739,5.739,0,0,0-.509-6.03c-.211,3.222-4.331,4.963-6.564,7.925-1.909,2.534-2.362,6.3,1.3,8.886-4.135-1.635-4.854-6.033-4.345-9.665a2.524,2.524,0,0,0,1.5,1.271,19.048,19.048,0,0,1-.639-8.879c.309.639.642,1.727,1.327,1.772a23.9,23.9,0,0,1,.425-8.349,2.927,2.927,0,0,0,1.193,1.657A23.585,23.585,0,0,1,292.01,311Z" transform="translate(-42.518 0)" fill-rule="evenodd" fill="url(#linear-gradient)"/>
  </g>
</svg>
