<svg xmlns="http://www.w3.org/2000/svg" width="18" height="18" viewBox="0 0 18 18">
  <path id="search" d="M18.71,16.4,14.273,11.94a7.1,7.1,0,0,0,1.766-4.672A7.409,7.409,0,0,0,8.512,0,7.409,7.409,0,0,0,.984,7.267a7.409,7.409,0,0,0,7.528,7.267,7.632,7.632,0,0,0,4.313-1.315L17.3,17.709a1.007,1.007,0,0,0,1.388.026A.926.926,0,0,0,18.71,16.4ZM8.512,1.9a5.476,5.476,0,0,1,5.564,5.372,5.476,5.476,0,0,1-5.564,5.372A5.476,5.476,0,0,1,2.948,7.267,5.476,5.476,0,0,1,8.512,1.9Z" transform="translate(-0.984)" fill="#868e96"/>
</svg>
