<svg xmlns="http://www.w3.org/2000/svg" width="16" height="20" viewBox="0 0 16 20">
  <g id="avatar" transform="translate(-36.073)">
    <g id="Group_24" data-name="Group 24" transform="translate(36.073)">
      <path id="Path_12" data-name="Path 12" d="M141.079,10.777h.125a3.5,3.5,0,0,0,2.746-1.263c1.5-1.8,1.25-4.879,1.223-5.173A4.28,4.28,0,0,0,143.284.584a4.133,4.133,0,0,0-2.1-.584h-.066a4.131,4.131,0,0,0-2.1.567,4.281,4.281,0,0,0-1.913,3.773c-.027.294-.277,3.375,1.223,5.173A3.487,3.487,0,0,0,141.079,10.777Zm-2.925-6.333c0-.012,0-.025,0-.033.129-2.97,2.111-3.288,2.96-3.288h.047c1.052.025,2.84.48,2.96,3.288a.086.086,0,0,0,0,.033c0,.029.277,2.845-.962,4.328a2.483,2.483,0,0,1-2.006.886h-.039a2.475,2.475,0,0,1-2-.886C137.885,7.3,138.15,4.469,138.154,4.444Z" transform="translate(-133.147)" fill="#fff"/>
      <path id="Path_13" data-name="Path 13" d="M52.072,264.395v-.012c0-.033,0-.066,0-.1-.023-.82-.074-2.738-1.765-3.351l-.039-.012a10.964,10.964,0,0,1-3.233-1.566.506.506,0,0,0-.732.137.581.581,0,0,0,.129.779,11.838,11.838,0,0,0,3.556,1.727c.908.344,1.009,1.375,1.036,2.319a.884.884,0,0,0,0,.1,7.985,7.985,0,0,1-.082,1.28,13.674,13.674,0,0,1-6.867,1.7,13.752,13.752,0,0,1-6.871-1.7,7.56,7.56,0,0,1-.082-1.28c0-.033,0-.066,0-.1.027-.944.129-1.976,1.036-2.319a11.948,11.948,0,0,0,3.556-1.727.581.581,0,0,0,.129-.779.506.506,0,0,0-.732-.137,10.846,10.846,0,0,1-3.233,1.566l-.039.012c-1.691.617-1.741,2.535-1.765,3.351a.882.882,0,0,1,0,.1v.012a6.736,6.736,0,0,0,.2,1.876.526.526,0,0,0,.2.261,14.09,14.09,0,0,0,7.6,1.98,14.132,14.132,0,0,0,7.6-1.98.548.548,0,0,0,.2-.261A7.069,7.069,0,0,0,52.072,264.395Z" transform="translate(-36.073 -248.507)" fill="#fff"/>
    </g>
  </g>
</svg>
